<mxfile host="Electron" agent="Mozilla/5.0 (Windows NT 10.0; Win64; x64) AppleWebKit/537.36 (KHTML, like Gecko) draw.io/24.7.8 Chrome/128.0.6613.36 Electron/32.0.1 Safari/537.36" version="24.7.8">
  <diagram name="Student Use Case Diagram" id="dCsgO73LHUre2V6FmROh">
    <mxGraphModel dx="1884" dy="1102" grid="1" gridSize="10" guides="1" tooltips="1" connect="1" arrows="1" fold="1" page="1" pageScale="1" pageWidth="1169" pageHeight="827" math="0" shadow="0">
      <root>
        <mxCell id="0" />
        <mxCell id="1" parent="0" />
        <mxCell id="_k6qfwFpwHosnfN_ILLj-1" value="Student" style="shape=umlActor;verticalLabelPosition=bottom;verticalAlign=top;" vertex="1" parent="1">
          <mxGeometry x="256" y="260" width="80" height="120" as="geometry" />
        </mxCell>
        <mxCell id="_k6qfwFpwHosnfN_ILLj-2" value="Login" style="ellipse;whiteSpace=wrap;html=1;" vertex="1" parent="1">
          <mxGeometry x="600" y="140" width="140" height="60" as="geometry" />
        </mxCell>
        <mxCell id="_k6qfwFpwHosnfN_ILLj-3" value="View Profile" style="ellipse;whiteSpace=wrap;html=1;" vertex="1" parent="1">
          <mxGeometry x="600" y="220" width="140" height="60" as="geometry" />
        </mxCell>
        <mxCell id="_k6qfwFpwHosnfN_ILLj-4" value="View Results" style="ellipse;whiteSpace=wrap;html=1;" vertex="1" parent="1">
          <mxGeometry x="600" y="320" width="140" height="60" as="geometry" />
        </mxCell>
        <mxCell id="_k6qfwFpwHosnfN_ILLj-5" value="View Attendance" style="ellipse;whiteSpace=wrap;html=1;" vertex="1" parent="1">
          <mxGeometry x="600" y="414" width="140" height="60" as="geometry" />
        </mxCell>
        <mxCell id="_k6qfwFpwHosnfN_ILLj-6" value="View Messages" style="ellipse;whiteSpace=wrap;html=1;" vertex="1" parent="1">
          <mxGeometry x="600" y="520" width="140" height="60" as="geometry" />
        </mxCell>
        <mxCell id="_k6qfwFpwHosnfN_ILLj-7" value="Change Password" style="ellipse;whiteSpace=wrap;html=1;" vertex="1" parent="1">
          <mxGeometry x="600" y="620" width="140" height="60" as="geometry" />
        </mxCell>
        <mxCell id="_k6qfwFpwHosnfN_ILLj-8" style="endArrow=none;" edge="1" parent="1" target="_k6qfwFpwHosnfN_ILLj-2">
          <mxGeometry relative="1" as="geometry">
            <mxPoint x="340" y="330" as="sourcePoint" />
          </mxGeometry>
        </mxCell>
        <mxCell id="_k6qfwFpwHosnfN_ILLj-9" style="endArrow=none;" edge="1" parent="1" target="_k6qfwFpwHosnfN_ILLj-3">
          <mxGeometry relative="1" as="geometry">
            <mxPoint x="340" y="330" as="sourcePoint" />
          </mxGeometry>
        </mxCell>
        <mxCell id="_k6qfwFpwHosnfN_ILLj-10" style="endArrow=none;" edge="1" parent="1" target="_k6qfwFpwHosnfN_ILLj-4">
          <mxGeometry relative="1" as="geometry">
            <mxPoint x="340" y="330" as="sourcePoint" />
          </mxGeometry>
        </mxCell>
        <mxCell id="_k6qfwFpwHosnfN_ILLj-11" style="endArrow=none;entryX=0;entryY=0.5;entryDx=0;entryDy=0;" edge="1" parent="1" target="_k6qfwFpwHosnfN_ILLj-5">
          <mxGeometry relative="1" as="geometry">
            <mxPoint x="340" y="330" as="sourcePoint" />
          </mxGeometry>
        </mxCell>
        <mxCell id="_k6qfwFpwHosnfN_ILLj-12" style="endArrow=none;" edge="1" parent="1" target="_k6qfwFpwHosnfN_ILLj-6">
          <mxGeometry relative="1" as="geometry">
            <mxPoint x="340" y="330" as="sourcePoint" />
          </mxGeometry>
        </mxCell>
        <mxCell id="_k6qfwFpwHosnfN_ILLj-13" style="endArrow=none;" edge="1" parent="1" target="_k6qfwFpwHosnfN_ILLj-7">
          <mxGeometry relative="1" as="geometry">
            <mxPoint x="340" y="330" as="sourcePoint" />
          </mxGeometry>
        </mxCell>
        <mxCell id="_k6qfwFpwHosnfN_ILLj-14" value="" style="endArrow=none;html=1;rounded=0;" edge="1" parent="1">
          <mxGeometry width="50" height="50" relative="1" as="geometry">
            <mxPoint x="400" y="100" as="sourcePoint" />
            <mxPoint x="840" y="100" as="targetPoint" />
          </mxGeometry>
        </mxCell>
        <mxCell id="_k6qfwFpwHosnfN_ILLj-15" value="" style="endArrow=none;html=1;rounded=0;" edge="1" parent="1">
          <mxGeometry width="50" height="50" relative="1" as="geometry">
            <mxPoint x="400" y="760" as="sourcePoint" />
            <mxPoint x="840" y="760" as="targetPoint" />
          </mxGeometry>
        </mxCell>
        <mxCell id="_k6qfwFpwHosnfN_ILLj-16" value="" style="endArrow=none;html=1;rounded=0;" edge="1" parent="1">
          <mxGeometry width="50" height="50" relative="1" as="geometry">
            <mxPoint x="840" y="100" as="sourcePoint" />
            <mxPoint x="840" y="761" as="targetPoint" />
          </mxGeometry>
        </mxCell>
        <mxCell id="_k6qfwFpwHosnfN_ILLj-17" value="" style="endArrow=none;html=1;rounded=0;" edge="1" parent="1">
          <mxGeometry width="50" height="50" relative="1" as="geometry">
            <mxPoint x="400" y="98" as="sourcePoint" />
            <mxPoint x="400" y="759" as="targetPoint" />
          </mxGeometry>
        </mxCell>
      </root>
    </mxGraphModel>
  </diagram>
</mxfile>
